<?xml version="1.0" encoding="UTF-8" standalone="no"?>
<!DOCTYPE svg PUBLIC "-//W3C//DTD SVG 1.1//EN" "http://www.w3.org/Graphics/SVG/1.1/DTD/svg11.dtd">
<svg width="612pt" height="360pt" viewBox="0 0 612 360" overflow="visible" version="1.1" xmlns="http://www.w3.org/2000/svg">
  <path d="M117.6533,18.67944 L117.6533,39.8896 L96.44314,39.8896 L96.44314,315.6217 L117.6533,315.6217 L117.6533,336.8319 L499.4363,336.8319 L499.4363,315.6217 L520.6464,315.6217 L520.6464,39.8896 L499.4363,39.8896 L499.4363,18.67944 z" stroke="#000000" stroke-width="0.24" fill-opacity="1" fill="#7a7e74" />
  <path d="M117.6533,82.30991 L117.6533,124.7302 L138.8634,124.7302 L138.8634,145.9404 L160.0736,145.9404 L160.0736,103.5201 L181.2838,103.5201 L181.2838,61.09975 L202.4939,61.09975 L202.4939,82.30991 L266.1244,82.30991 L266.1244,103.5201 L287.3346,103.5201 L287.3346,145.9404 L308.5448,145.9404 L308.5448,124.7302 L329.7549,124.7302 L329.7549,103.5201 L350.9651,103.5201 L350.9651,82.30991 L393.3854,82.30991 L393.3854,61.09975 L414.5956,61.09975 L414.5956,82.30991 L435.8058,82.30991 L435.8058,103.5201 L457.0159,103.5201 L457.0159,145.9404 L478.2261,145.9404 L478.2261,124.7302 L499.4362,124.7302 L499.4362,82.30991 L478.2261,82.30991 L478.2261,61.09975 L457.0159,61.09975 L457.0159,39.88958 L160.0736,39.88958 L160.0736,61.09975 L138.8634,61.09975 L138.8634,82.30991 z" stroke="#7E7E7E" stroke-width="0.24" fill-opacity="1" fill="#37393d" />
  <path d="M520.6464,103.5201 L541.8566,103.5201 L541.8566,124.7303 L563.0668,124.7303 L563.0668,145.9404 L584.2769,145.9404 L584.2769,209.5709 L563.0668,209.5709 L563.0668,230.7811 L541.8566,230.7811 L541.8566,251.9913 L520.6464,251.9913 z" stroke="#585858" stroke-width="0.24" fill-opacity="1" fill="#37393d" />
  <path d="M96.44314,103.5201 L75.23296,103.5201 L75.23296,124.7303 L54.0228,124.7303 L54.0228,145.9404 L32.81263,145.9404 L32.81263,209.5709 L54.0228,209.5709 L54.0228,230.7811 L75.23296,230.7811 L75.23296,251.9913 L96.44314,251.9913 z" stroke="#585858" stroke-width="0.24" fill-opacity="1" fill="#37393d" />
  <path d="M499.4363,124.7303 L499.4363,82.30994 L478.2261,82.30994 L478.2261,61.09977 L457.0159,61.09977 L457.0159,39.8896 L160.0736,39.8896 L160.0736,61.09977 L138.8635,61.09977 L138.8635,82.30994 L117.6533,82.30994 L117.6533,124.7303 L117.6533,273.2014 L138.8635,273.2014 L138.8635,294.4116 L160.0736,294.4116 L160.0736,315.6217 L457.0159,315.6217 L457.0159,294.4116 L478.2261,294.4116 L478.2261,273.2014 L499.4363,273.2014 z" stroke="#585858" stroke-width="0.24" fill-opacity="0" fill="#7a7e74" />
  <path d="M478.2261,61.09977 L499.4363,61.09977 L499.4363,39.8896 L478.2261,39.8896 z" stroke="#B6B6B6" stroke-width="0.24" fill-opacity="1" fill="#aaaba6" />
  <path d="M584.2769,188.3608 L605.4871,188.3608 L605.4871,167.1506 L584.2769,167.1506 z" stroke="#B6B6B6" stroke-width="0.24" fill-opacity="1" fill="#aaaba6" />
  <path d="M117.6533,61.09977 L138.8635,61.09977 L138.8635,39.8896 L117.6533,39.8896 z" stroke="#B6B6B6" stroke-width="0.24" fill-opacity="1" fill="#aaaba6" />
  <path d="M478.2261,315.6217 L499.4363,315.6217 L499.4363,294.4116 L478.2261,294.4116 z" stroke="#B6B6B6" stroke-width="0.24" fill-opacity="1" fill="#aaaba6" />
  <path d="M117.6533,315.6217 L138.8635,315.6217 L138.8635,294.4116 L117.6533,294.4116 z" stroke="#B6B6B6" stroke-width="0.24" fill-opacity="1" fill="#aaaba6" />
  <path d="M32.81263,188.3608 L11.60247,188.3608 L11.60247,167.1506 L32.81263,167.1506 z" stroke="#B6B6B6" stroke-width="0.24" fill-opacity="1" fill="#aaaba6" />
  <path d="M117.6533,124.7303 L117.6533,273.2014 L138.8635,273.2014 L138.8635,294.4116 L160.0736,294.4116 L160.0736,315.6217 L457.0159,315.6217 L457.0159,294.4116 L478.2261,294.4116 L478.2261,273.2014 L499.4363,273.2014 L499.4363,124.7303 L478.2261,124.7303 L478.2261,145.9404 L457.0159,145.9404 L457.0159,103.5201 L435.8058,103.5201 L435.8058,82.30994 L414.5956,82.30994 L414.5956,61.09977 L393.3854,61.09977 L393.3854,82.30994 L350.9651,82.30994 L350.9651,103.5201 L329.7549,103.5201 L329.7549,124.7303 L308.5448,124.7303 L308.5448,145.9404 L287.3346,145.9404 L287.3346,103.5201 L266.1245,103.5201 L266.1245,82.30994 L202.494,82.30994 L202.494,61.09977 L181.2838,61.09977 L181.2838,103.5201 L160.0736,103.5201 L160.0736,145.9404 L138.8635,145.9404 L138.8635,124.7303 z" stroke="#212121" stroke-width="0.24" fill-opacity="1" fill="#001b01" />
  <path d="M160.0736,209.5709 L181.2838,209.5709 L181.2838,230.7811 L223.7041,230.7811 L223.7041,209.5709 L287.3346,209.5709 L287.3346,230.7811 L329.7549,230.7811 L329.7549,209.5709 L393.3854,209.5709 L393.3854,230.7811 L435.8058,230.7811 L435.8058,209.5709 L457.0159,209.5709 L457.0159,273.2014 L435.8058,273.2014 L435.8058,294.4116 L350.9651,294.4116 L350.9651,273.2014 L266.1245,273.2014 L266.1245,294.4116 L181.2838,294.4116 L181.2838,273.2014 L160.0736,273.2014 z" stroke="#00FFFF" stroke-width="0.24" fill-opacity="1" fill="#b8efe0" />
  <path d="M181.2838,124.7303 L202.494,124.7303 L202.494,103.5201 L244.9143,103.5201 L244.9143,124.7303 L266.1245,124.7303 L266.1245,167.1506 L244.9143,167.1506 L244.9143,188.3608 L202.494,188.3608 L202.494,167.1506 L181.2838,167.1506 z" stroke="#FFFFFF" stroke-width="0.24" fill-opacity="1" fill="#b8efe0" />
  <path d="M372.1753,103.5201 L414.5956,103.5201 L414.5956,124.7303 L435.8058,124.7303 L435.8058,167.1506 L414.5956,167.1506 L414.5956,188.3608 L372.1753,188.3608 L372.1753,167.1506 L350.9651,167.1506 L350.9651,124.7303 L372.1753,124.7303 z" stroke="#FFFFFF" stroke-width="0.24" fill-opacity="1" fill="#b8efe0" />
</svg>
